<?xml version="1.0" encoding="UTF-8"?>
<!DOCTYPE svg PUBLIC "-//W3C//DTD SVG 1.1//EN" "http://www.w3.org/Graphics/SVG/1.1/DTD/svg11.dtd">
<!-- Creator: CorelDRAW -->
<svg xmlns="http://www.w3.org/2000/svg" xml:space="preserve" width="42.3332mm" height="42.3332mm" version="1.1" style="shape-rendering:geometricPrecision; text-rendering:geometricPrecision; image-rendering:optimizeQuality; fill-rule:evenodd; clip-rule:evenodd"
viewBox="0 0 4233.32 4233.32"
 xmlns:xlink="http://www.w3.org/1999/xlink"
 xmlns:xodm="http://www.corel.com/coreldraw/odm/2003">
 <defs>
  <style type="text/css">
   <![CDATA[
    .fil1 {fill:#25B56F}
    .fil0 {fill:#27363B}
    .fil2 {fill:#F49B26}
   ]]>
  </style>
 </defs>
 <g id="Слой_x0020_1">
  <metadata id="CorelCorpID_0Corel-Layer"/>
  <g id="_1597039720560">
   <path class="fil0" d="M59.98 1968.79c0,264.18 10.25,388.72 72.17,636.31 75.41,301.55 188.52,566.93 355.59,820.76 19.87,30.2 39.51,54.41 62.97,84.07 56.91,71.98 153.03,175.35 244.48,196.65 56,-37.49 56.76,-133.14 70.66,-216.74 37.64,-226.48 93.5,-489.93 189.92,-685.67 82.3,-167.1 206.14,-285.12 158.54,-392.26 -30.38,-68.36 -52.59,-70.81 -97.36,-190.06 -44.95,-119.71 -41.04,-236.03 -41.04,-366.68 0,-169.76 54.11,-356.49 107.02,-474.48 130.25,-290.44 315.94,-454.06 585.82,-590.53 221.53,-112.01 557.87,-134.14 811.92,-58.77 220.48,65.42 324.8,123.55 491.73,263.54 19.64,16.47 28.26,29.18 48.76,44.82 83.24,63.53 157.54,175.29 204.98,269.56 22.31,44.33 34.88,86.47 57.67,129.48 22.77,42.98 59.91,48.2 125.54,61.6 103.7,21.18 452.93,122.39 505.61,92.6 12.48,-7.06 1.68,2.48 10.98,-9.35 65.51,-83.31 -131.33,-419.29 -169.87,-483.44 -23.58,-39.25 -49.57,-71.43 -75.87,-111.27 -247.14,-374.49 -507.21,-610.47 -947.3,-757.07 -401.35,-133.7 -793.76,-144.74 -1207.18,-65.95 -247.47,47.17 -470.36,143.87 -680.73,281.74 -87.24,57.17 -163.98,109.92 -241.81,179.26l-123.59 117.03c-6.42,6 -8,6.86 -14.17,12.57l-73.85 79.87c-76.11,97.41 -134.94,164.02 -199.8,281.44l-42.58 77.72c-14.48,28.97 -23.51,53.11 -37.79,82.52 -13.39,27.58 -23.66,55.73 -35.01,85.31 -65.74,171.32 -116.41,408.91 -116.41,605.42z"/>
   <path class="fil1" d="M1216.27 3419.18c23.56,-6.29 11.63,-3.76 29.08,-17.71l99.91 -87.23c12.37,-10.46 13.76,-9.32 26.3,-20.49 18.5,-16.48 31.92,-27.13 50.19,-43.39 67.85,-60.4 137.24,-116.46 208,-172.98l213.84 -167.13c73.46,-55.11 147.24,-106.65 221.55,-159.43 236.15,-167.7 700.94,-450.28 1003.2,-408.39 17.55,2.43 38.61,4.51 54.82,18.71 10.19,8.92 14.21,12.92 17.13,30.47 10.81,65.1 -60.93,83.5 -83.72,94.08 -50.57,23.5 -91.21,43.37 -140.3,66.91 -111.26,53.37 -159.02,82.99 -262.67,145.05 -41.45,24.82 -80.53,53.2 -120.62,79.89 -74.81,49.82 -162.91,121.25 -234.87,179.52 -66.16,53.57 -149.93,135.09 -211.27,196.44l-100.31 106.89c-134.73,132.42 -366.99,487.29 -447.5,675.38 -12.55,29.32 -27.86,41.91 -28.67,78.27 73.17,109.27 311.71,115.46 491.83,90.8 390.95,-53.54 586.14,-139.16 929,-280.77 81.5,-33.66 307.73,-159.94 391.84,-216.39 31.08,-20.86 56.32,-37.68 88.22,-58.82 64.25,-42.56 199.84,-147.59 252.91,-201.59l76.92 -70.12c133.21,-133.54 235.19,-272.87 320.28,-441.68 109.81,-217.86 148.2,-549.08 72.82,-770.19 -40.24,-118.01 -296.24,-172.69 -398.9,-202.63 -172.65,-50.37 -338.38,-77.66 -520.52,-87.72 -53.1,-2.93 -225.34,12.79 -280.41,20.43 -137.22,19.03 -241.84,49.06 -367.1,87.39 -39.7,12.16 -75.64,22.19 -117.06,36.67 -141.41,49.44 -183.96,75.05 -309.49,145 -323.01,180 -635.49,570.16 -769.76,901.2 -66.12,163.01 -66.69,160.32 -123.83,330.67 -10.04,29.92 -30.13,91.11 -30.84,122.89z"/>
   <path class="fil2" d="M1403.42 1915.32c0,76.1 7.26,106.47 29.13,171.39 25.45,75.59 46.47,72.52 71.13,109.33l378.15 -183.28c33.64,-13.97 65.56,-29.93 96.51,-43.85l195.95 -84.77c35.77,-17.18 65.68,-28.27 102.43,-44.62 132.62,-58.99 259.38,-110.13 392.22,-169.21l294.05 -127.03c27.25,-12.75 78.14,-36.16 104.7,-42.35 0,-80.72 -43.85,-173.98 -79.13,-221.64 -90.09,-121.68 -233.01,-194.19 -379.16,-235.75 -231.06,-65.72 -539.4,-71.02 -760.5,40.66 -263.11,132.9 -445.48,536.61 -445.48,831.12z"/>
   <polygon class="fil1" points="1216.27,3419.18 1209.59,3419.18 1215.16,3426.98 "/>
  </g>
 </g>
</svg>
